<svg xmlns="http://www.w3.org/2000/svg" viewBox="0 0 512 512"><defs><style>.cls-1{fill:#fff;}.cls-2{fill:#2ca01c;}</style></defs><g id="Layer_2" data-name="Layer 2"><g id="Layer_1-2" data-name="Layer 1"><rect class="cls-1" width="512" height="512" rx="85.5"/><path class="cls-2" d="M40.65,256A215.42,215.42,0,0,0,173,454.78a6.05,6.05,0,0,0,8.38-5.58V416.57a6,6,0,0,0-3.41-5.43,172,172,0,0,1-97.5-147.47,6,6,0,0,1,7.26-6.2c26.65,5.47,53.45,15.84,76.14,35,39,33,45.27,84.84,46,130.2.23,13.75-.06,26.88-.13,38.71a6,6,0,0,0,4.9,6,214.2,214.2,0,0,0,24.88,3.34,6,6,0,0,0,6.46-6V47.3a6,6,0,0,0-6.46-6C128.28,49.69,40.65,142.61,40.65,256Zm49-56.09a172.49,172.49,0,0,1,90.25-100,6.05,6.05,0,0,1,8.35,3.69c15.41,50.11,19.26,97.18,21.41,161.22A6,6,0,0,1,199,268.91c-31-36.88-70.16-53.56-104.95-61.1A6,6,0,0,1,89.67,199.91Z"/><path class="cls-2" d="M266,47.3V464.69a6,6,0,0,0,6.46,6,214.2,214.2,0,0,0,24.88-3.34,6,6,0,0,0,4.9-6c-.07-11.83-.36-25-.13-38.71.71-45.36,7-97.23,46-130.2,22.69-19.2,49.49-29.57,76.14-35a6,6,0,0,1,7.26,6.2A172,172,0,0,1,334,411.14a6,6,0,0,0-3.41,5.43V449.2a6.05,6.05,0,0,0,8.38,5.58A215.42,215.42,0,0,0,471.35,256c0-113.39-87.63-206.31-198.87-214.72A6,6,0,0,0,266,47.3Zm36.3,217.55c2.15-64,6-111.11,21.41-161.22a6.05,6.05,0,0,1,8.35-3.69,172.49,172.49,0,0,1,90.25,100,6,6,0,0,1-4.38,7.9C383.16,215.35,344,232,313,268.91A6,6,0,0,1,302.32,264.85Z"/></g></g></svg>