<?xml version="1.0" standalone="no"?>
<!DOCTYPE svg PUBLIC "-//W3C//DTD SVG 20010904//EN"
 "http://www.w3.org/TR/2001/REC-SVG-20010904/DTD/svg10.dtd">
<svg version="1.0" xmlns="http://www.w3.org/2000/svg"
 width="700.000000pt" height="700.000000pt" viewBox="0 0 700.000000 700.000000"
 preserveAspectRatio="xMidYMid meet">
<metadata>
Created by potrace 1.14, written by Peter Selinger 2001-2017
</metadata>
<g transform="translate(0.000000,700.000000) scale(0.100000,-0.100000)"
fill="#000000" stroke="none">
<path d="M3295 6939 c-139 -21 -288 -83 -373 -155 -142 -122 -197 -313 -130
-454 31 -65 42 -77 128 -150 100 -85 125 -109 119 -114 -2 -3 -54 -16 -114
-30 -285 -64 -565 -181 -836 -350 -40 -25 -76 -46 -80 -46 -4 0 -4 24 -1 53 3
28 6 104 6 167 1 108 -1 119 -27 170 -37 71 -95 125 -176 164 -61 29 -74 31
-176 31 -100 0 -192 -15 -220 -35 -5 -4 -20 -11 -32 -14 -120 -37 -387 -275
-486 -433 -85 -136 -115 -219 -124 -347 -12 -163 68 -320 195 -385 32 -17 138
-39 162 -34 3 0 40 4 82 8 43 3 91 8 108 10 16 2 32 0 35 -6 4 -5 -9 -33 -27
-62 -117 -179 -204 -351 -273 -543 -41 -113 -99 -322 -108 -388 -7 -56 -20
-49 -105 55 -115 143 -184 182 -314 181 -108 -2 -193 -43 -288 -140 -133 -137
-189 -314 -190 -602 -2 -396 161 -672 425 -721 71 -13 134 -5 200 26 60 29 88
54 179 163 41 48 73 79 78 74 5 -5 21 -58 34 -118 60 -259 160 -507 307 -759
23 -38 44 -72 47 -75 16 -15 40 -62 35 -70 -3 -6 -37 -6 -83 -2 -150 14 -242
8 -296 -18 -167 -81 -245 -295 -185 -510 76 -274 372 -581 659 -682 77 -27
219 -34 293 -15 108 29 196 97 245 191 22 44 26 64 26 141 0 50 -3 122 -7 162
-4 40 -3 74 2 77 5 3 24 -5 42 -17 182 -123 411 -234 628 -307 109 -36 277
-80 307 -80 11 0 28 -6 38 -13 17 -13 14 -17 -40 -63 -121 -101 -180 -167
-199 -223 -47 -143 -11 -281 106 -401 80 -82 220 -155 339 -176 14 -3 31 -7
38 -9 45 -16 281 -24 377 -13 265 31 457 143 542 316 32 64 38 86 40 151 2 61
-3 88 -22 135 -27 68 -47 90 -168 193 -90 76 -95 89 -44 98 15 3 37 7 50 9 42
7 152 38 247 68 198 63 396 155 576 268 60 37 113 66 118 63 4 -3 5 -40 1 -82
-22 -222 -5 -298 86 -390 136 -135 351 -151 574 -40 274 135 545 468 571 701
3 29 7 58 8 63 2 6 -1 41 -6 79 -19 140 -95 252 -206 303 -59 28 -141 33 -294
18 -55 -5 -88 -4 -88 2 0 5 11 25 26 44 48 65 156 259 209 376 65 145 124 319
160 478 16 66 31 124 35 128 4 5 27 -15 51 -44 96 -115 151 -167 206 -195 51
-25 69 -29 144 -29 78 0 91 3 161 37 138 69 238 204 287 388 27 102 33 154 36
300 3 150 -7 227 -45 340 -86 257 -246 402 -442 401 -112 -1 -185 -40 -278
-149 -30 -35 -67 -78 -81 -95 -32 -36 -44 -31 -54 25 -12 65 -12 65 -50 197
-67 233 -166 456 -298 671 -36 58 -61 107 -56 110 5 4 44 2 86 -2 209 -23 297
-4 384 84 137 139 151 380 33 596 -106 194 -333 413 -516 497 -274 125 -554
47 -634 -177 -16 -45 -21 -145 -11 -213 6 -40 10 -99 8 -122 -2 -21 -16 -15
-103 42 -105 70 -372 202 -503 249 -113 40 -243 77 -357 101 -43 10 -78 20
-78 24 0 3 36 35 81 71 142 114 197 198 201 306 3 121 -35 209 -137 309 -94
94 -209 149 -375 181 -57 10 -360 13 -425 3z m345 -354 c62 -12 85 -18 124
-36 53 -23 79 -51 79 -84 0 -28 -13 -40 -88 -84 -65 -37 -120 -99 -154 -170
-22 -48 -26 -69 -26 -146 1 -80 4 -98 32 -157 56 -119 158 -197 287 -218 218
-35 527 -148 715 -262 34 -21 65 -38 67 -38 5 0 178 -121 184 -129 3 -3 23
-19 45 -36 22 -16 91 -79 153 -140 328 -321 556 -746 632 -1185 24 -138 97
-236 219 -293 84 -40 204 -47 282 -17 76 28 149 89 188 156 48 81 60 94 91 94
69 0 122 -137 124 -320 1 -124 -5 -176 -33 -256 -23 -66 -59 -104 -98 -104
-28 0 -42 14 -74 74 -115 217 -410 261 -587 88 -60 -59 -95 -124 -112 -212 -6
-36 -14 -73 -15 -82 -12 -62 -60 -222 -91 -305 -42 -112 -139 -313 -184 -379
-16 -25 -30 -47 -30 -50 0 -8 -138 -194 -178 -239 -150 -172 -283 -289 -464
-408 -275 -181 -534 -284 -861 -342 -96 -18 -204 -100 -250 -192 -95 -189 -36
-398 140 -499 69 -39 83 -54 83 -84 0 -76 -179 -135 -381 -125 -230 11 -363
99 -268 179 17 14 35 26 41 26 6 0 34 19 63 43 92 74 138 174 134 291 -4 113
-43 200 -123 274 -58 54 -109 75 -241 102 -160 32 -354 95 -485 156 -138 66
-200 100 -311 175 -370 248 -656 596 -823 1001 -32 78 -92 253 -101 295 -45
219 -55 254 -88 305 -79 122 -192 179 -344 174 -63 -1 -89 -8 -136 -31 -71
-35 -134 -98 -172 -170 -82 -157 -193 -12 -200 260 -4 187 56 355 127 355 33
0 42 -8 81 -76 131 -223 416 -259 598 -75 62 64 77 98 115 273 31 143 29 139
55 217 76 231 179 434 316 623 86 120 105 142 248 283 132 132 220 202 366
294 241 151 464 239 776 306 122 26 177 52 234 112 104 109 138 282 80 416
-27 64 -101 140 -173 180 -94 51 -91 108 8 154 93 42 285 61 404 38z m-1998
-742 c24 -21 23 -43 -8 -138 -33 -102 -28 -173 16 -252 35 -62 37 -82 10 -111
-27 -29 -41 -28 -117 10 -86 42 -150 47 -243 19 -105 -32 -127 -33 -145 -8
-20 29 -19 73 5 124 97 214 395 435 482 356z m3860 -13 c78 -39 177 -118 233
-186 109 -134 149 -240 106 -283 -27 -27 -40 -26 -129 4 -41 14 -93 25 -116
25 -54 0 -126 -21 -164 -49 -38 -26 -62 -27 -90 -1 -28 27 -28 51 1 98 49 78
57 162 23 267 -30 94 -32 112 -9 137 24 27 75 22 145 -12z m-3842 -4172 c23
-25 26 -55 6 -77 -58 -64 -68 -194 -26 -312 20 -56 22 -71 12 -93 -52 -115
-366 90 -477 313 -35 70 -42 114 -21 146 20 31 41 31 136 1 101 -33 171 -30
248 11 69 38 95 40 122 11z m3760 7 c19 -23 116 -55 168 -55 26 0 86 12 134
26 97 28 123 24 134 -22 10 -39 -3 -83 -48 -159 -112 -190 -375 -366 -448
-300 -25 23 -25 48 1 121 14 37 22 86 23 130 1 62 -3 79 -31 134 -39 74 -41
95 -10 121 27 22 60 24 77 4z"/>
<path d="M3435 5358 c-92 -8 -118 -13 -195 -39 -412 -135 -615 -565 -441 -934
84 -178 240 -311 446 -380 160 -54 354 -55 510 -2 94 32 158 66 230 120 308
233 368 642 139 943 -152 199 -429 317 -689 292z m174 -373 c298 -86 364 -429
114 -594 -116 -77 -287 -85 -414 -20 -58 29 -136 110 -160 166 -33 73 -32 181
2 253 76 161 277 246 458 195z"/>
<path d="M2355 3682 c-58 -6 -149 -34 -210 -64 -174 -85 -304 -249 -351 -445
-23 -95 -23 -267 0 -363 47 -191 181 -387 331 -485 153 -99 238 -127 396 -131
135 -4 220 14 334 74 105 55 219 173 272 282 142 294 80 652 -154 895 -162
169 -399 260 -618 237z m210 -397 c69 -23 105 -47 157 -102 174 -187 142 -483
-64 -582 -56 -26 -72 -30 -143 -28 -68 2 -91 7 -147 35 -145 71 -231 218 -224
385 9 226 208 364 421 292z"/>
<path d="M4447 3664 c-1 -2 -18 -6 -37 -9 -142 -24 -309 -117 -418 -234 -51
-55 -124 -168 -148 -231 -9 -25 -20 -49 -24 -55 -4 -5 -11 -26 -16 -45 -4 -19
-9 -42 -11 -50 -57 -241 15 -510 181 -675 87 -87 183 -141 306 -172 195 -49
424 5 606 143 295 224 402 647 243 968 -115 231 -345 371 -600 365 -43 -1 -80
-3 -82 -5z m183 -393 c77 -29 134 -82 171 -156 26 -54 31 -75 32 -142 1 -125
-36 -216 -123 -303 -108 -108 -239 -140 -371 -91 -183 69 -252 300 -149 500
84 165 283 252 440 192z"/>
</g>
</svg>
