<?xml version="1.0" standalone="no"?>
<!DOCTYPE svg PUBLIC "-//W3C//DTD SVG 20010904//EN"
 "http://www.w3.org/TR/2001/REC-SVG-20010904/DTD/svg10.dtd">
<svg version="1.0" xmlns="http://www.w3.org/2000/svg"
 width="700.000000pt" height="700.000000pt" viewBox="0 0 700.000000 700.000000"
 preserveAspectRatio="xMidYMid meet">
<metadata>
Created by potrace 1.14, written by Peter Selinger 2001-2017
</metadata>
<g transform="translate(0.000000,700.000000) scale(0.100000,-0.100000)"
fill="#000000" stroke="none">
<path d="M3105 6964 c-1116 -127 -2109 -792 -2659 -1782 -437 -785 -548 -1752
-301 -2627 123 -438 323 -832 612 -1206 110 -143 423 -458 568 -573 212 -168
473 -329 716 -442 143 -65 184 -70 223 -23 l26 31 0 294 c0 174 -4 303 -10
314 -5 10 -58 44 -117 76 -279 148 -469 288 -689 508 -434 435 -698 957 -789
1565 -51 341 -27 403 142 366 591 -129 1106 -416 1405 -785 229 -281 377 -632
453 -1070 49 -288 58 -413 64 -961 6 -490 7 -518 25 -538 11 -12 36 -26 56
-31 60 -16 300 -49 377 -52 68 -3 74 -1 100 25 l28 27 3 3404 c1 2157 -1 3414
-8 3430 -10 28 -43 52 -80 59 -14 3 -79 -1 -145 -9z m-762 -937 c18 -8 37 -20
44 -28 17 -21 96 -301 142 -507 123 -548 178 -1056 217 -2009 l7 -162 -31 -31
c-24 -23 -39 -30 -70 -30 -46 0 -51 4 -158 124 -204 230 -516 466 -814 616
-212 107 -447 193 -696 255 -145 36 -167 48 -180 102 -13 51 115 351 241 562
211 354 522 680 859 903 112 74 274 165 346 195 66 27 54 26 93 10z"/>
<path d="M3734 6973 c-12 -2 -32 -15 -45 -29 l-24 -26 -2 -3406 c-2 -2703 0
-3412 10 -3432 7 -14 28 -33 47 -42 32 -15 45 -16 165 -2 147 16 291 41 317
55 44 24 46 38 51 584 5 538 13 659 62 940 87 506 287 920 587 1211 303 297
789 541 1266 639 162 33 188 -8 161 -253 -37 -340 -137 -676 -287 -972 -139
-272 -290 -479 -516 -706 -219 -218 -412 -361 -681 -504 -55 -29 -108 -62
-117 -74 -16 -19 -18 -52 -18 -318 l0 -296 26 -31 c38 -46 80 -42 214 19 228
102 485 259 700 426 141 109 391 351 515 499 449 532 718 1161 800 1870 23
192 23 553 1 750 -108 966 -594 1820 -1374 2413 -391 298 -873 517 -1371 622
-175 37 -440 71 -487 63z m1101 -998 c266 -139 471 -290 691 -509 165 -165
291 -323 395 -491 149 -241 290 -559 275 -619 -13 -53 -36 -65 -180 -102 -641
-161 -1146 -460 -1563 -926 -56 -64 -63 -68 -102 -68 -34 0 -49 6 -72 29 -34
34 -33 19 -19 341 36 829 96 1354 211 1862 47 207 125 486 142 507 19 22 70
40 97 34 14 -3 70 -29 125 -58z"/>
</g>
</svg>
