<svg data-name="Layer 1" xmlns="http://www.w3.org/2000/svg" viewBox="0 0 512 512">
  <rect width="512" height="512" rx="123" fill="#fff"/>
  <path d="M454.3 419.4h-31.7a6.5 6.5 0 0 1-5.7-3.3l-155.2-269a6.5 6.5 0 0 0-11.4 0l-155.2 269a6.5 6.5 0 0 1-5.7 3.3H57.7a6.5 6.5 0 0 1-5.7-9.8L232.4 96.7l18-30.9a6.5 6.5 0 0 1 11.3 0l17.9 31L460 409.5a6.5 6.5 0 0 1-5.7 9.8Z"/>
  <path d="m279.6 252.8-18-31a6.5 6.5 0 0 0-11.3 0l-17.9 31-90.2 156.8a6.5 6.5 0 0 0 5.7 9.8h31.7a6.5 6.5 0 0 0 5.7-3.3l17-30.8a6.5 6.5 0 0 1 5.7-3.3h96a6.5 6.5 0 0 1 5.7 3.3l17 30.8a6.5 6.5 0 0 0 5.8 3.3H365a6.5 6.5 0 0 0 4.8-9.8ZM234 331.6l16.3-28.4a6.5 6.5 0 0 1 8.8-2.6 6.7 6.7 0 0 1 2.6 2.6l17 28.4a6.5 6.5 0 0 1-5.6 9.8h-33.4a6.5 6.5 0 0 1-5.6-9.8Z" fill="#0f6811"/>
</svg>
