<?xml version="1.0" standalone="no"?>
<!DOCTYPE svg PUBLIC "-//W3C//DTD SVG 20010904//EN"
 "http://www.w3.org/TR/2001/REC-SVG-20010904/DTD/svg10.dtd">
<svg version="1.0" xmlns="http://www.w3.org/2000/svg"
 width="700.000000pt" height="700.000000pt" viewBox="0 0 700.000000 700.000000"
 preserveAspectRatio="xMidYMid meet">
<metadata>
Created by potrace 1.14, written by Peter Selinger 2001-2017
</metadata>
<g transform="translate(0.000000,700.000000) scale(0.100000,-0.100000)"
fill="#000000" stroke="none">
<path d="M3437 6480 c-22 -18 -50 -62 -134 -210 -41 -71 -153 -265 -162 -280
-9 -13 -45 -76 -202 -349 -61 -106 -253 -438 -269 -466 -10 -16 -41 -70 -69
-120 -28 -49 -56 -97 -61 -105 -6 -8 -13 -22 -17 -30 -4 -8 -16 -31 -28 -50
-12 -19 -33 -55 -47 -80 -24 -43 -169 -294 -398 -690 -218 -378 -528 -916
-547 -950 -11 -19 -46 -80 -78 -135 -32 -55 -114 -197 -182 -315 -67 -118
-127 -222 -132 -230 -6 -8 -29 -49 -53 -90 -23 -41 -49 -87 -58 -101 -8 -15
-71 -124 -140 -243 -69 -119 -132 -229 -141 -244 -27 -47 -360 -625 -385 -669
-13 -23 -81 -140 -150 -259 -69 -119 -127 -229 -128 -243 -3 -27 11 -67 29
-87 30 -31 57 -34 352 -34 294 0 298 0 325 23 15 12 145 227 289 477 367 638
538 934 578 1000 11 19 24 42 28 50 3 8 25 47 48 85 23 39 112 192 197 340
165 287 346 600 943 1635 205 355 380 659 389 675 9 17 26 46 37 65 12 19 50
85 85 146 66 114 90 137 144 137 57 0 77 -21 175 -191 52 -90 95 -168 95 -173
0 -5 5 -9 10 -9 6 0 10 -4 10 -9 0 -9 204 -367 286 -503 19 -31 34 -59 34 -64
0 -4 6 -15 14 -23 7 -9 27 -41 43 -71 17 -30 97 -170 178 -310 81 -140 157
-271 167 -290 11 -19 70 -120 131 -225 60 -104 119 -206 130 -225 11 -19 130
-226 265 -460 135 -234 253 -438 262 -455 10 -16 135 -235 280 -485 145 -250
297 -513 338 -585 41 -71 116 -200 165 -285 49 -85 99 -173 111 -194 40 -75
44 -76 374 -76 246 0 298 2 323 16 37 19 62 73 52 112 -5 22 -257 467 -408
722 -18 30 -44 75 -57 100 -14 25 -81 142 -150 260 -68 118 -248 429 -398 690
-150 261 -337 585 -415 720 -78 135 -213 369 -300 520 -87 151 -207 358 -266
460 -104 181 -126 218 -177 310 -14 25 -36 62 -49 82 -12 21 -23 41 -23 45 0
3 -6 14 -14 22 -7 9 -29 45 -48 81 -20 36 -57 100 -82 143 -25 43 -46 79 -46
81 0 2 -18 34 -41 71 -22 37 -50 84 -61 104 -48 84 -90 158 -107 186 -10 17
-29 50 -43 75 -14 25 -141 245 -283 490 -141 245 -286 496 -322 557 -35 62
-76 122 -90 133 -34 26 -92 26 -126 0z"/>
<path d="M3454 3866 c-26 -11 -52 -49 -143 -207 -61 -107 -116 -201 -121 -209
-5 -8 -73 -125 -150 -260 -78 -135 -146 -252 -151 -260 -9 -16 -31 -54 -221
-385 -63 -110 -177 -307 -252 -438 -75 -131 -146 -254 -156 -272 -11 -19 -70
-121 -131 -227 -62 -106 -121 -209 -131 -228 -10 -19 -23 -42 -28 -50 -10 -16
-55 -93 -264 -457 -70 -122 -129 -237 -132 -255 -6 -41 25 -94 62 -108 38 -15
597 -13 629 2 25 11 38 29 90 123 208 377 259 463 284 478 25 15 107 16 856
16 725 1 832 -1 860 -15 28 -13 55 -56 186 -292 84 -152 158 -282 164 -288 31
-31 57 -34 356 -34 l302 0 33 35 c54 57 47 78 -111 352 -76 131 -149 258 -163
283 -14 25 -66 117 -117 205 -51 88 -102 176 -113 195 -33 59 -291 508 -312
542 -10 18 -25 44 -33 58 -32 58 -402 701 -575 1000 -69 118 -136 235 -150
260 -60 108 -207 358 -229 392 -17 26 -37 41 -62 48 -44 12 -39 12 -77 -4z
m90 -1366 c21 -8 82 -85 106 -135 5 -11 147 -247 188 -313 64 -103 71 -143 37
-196 -29 -43 -67 -48 -392 -44 l-301 3 -26 24 c-36 34 -47 77 -29 120 27 69
278 497 306 524 31 29 67 34 111 17z"/>
</g>
</svg>
